<svg fill="#1DB954" role="img" viewBox="0 0 24 24" xmlns="http://www.w3.org/2000/svg">
<title>Spotify</title>
<path d="M12 0C5.372 0 0 5.372 0 12s5.372 12 12 12 12-5.372 12-12S18.628 0 12 0Zm5.504 17.316a.748.748 0 0 1-1.03.247c-2.82-1.722-6.37-2.112-10.552-1.16a.75.75 0 0 1-.333-1.462c4.577-1.042 8.496-.596 11.667 1.34a.75.75 0 0 1 .248 1.035Zm1.47-3.274a.936.936 0 0 1-1.287.31c-3.228-1.985-8.15-2.56-11.969-1.397a.938.938 0 0 1-.546-1.794c4.362-1.324 9.79-.686 13.496 1.593a.936.936 0 0 1 .306 1.288Zm.126-3.408C15.23 8.337 8.84 8.127 5.152 9.246a1.125 1.125 0 0 1-.654-2.153c4.235-1.285 11.274-1.037 15.779 1.638a1.124 1.124 0 1 1-1.177 1.904Z"/>
</svg>
